<?xml version="1.0" encoding="UTF-8" standalone="no"?>
<!DOCTYPE svg PUBLIC "-//W3C//DTD SVG 1.1//EN"
 "http://www.w3.org/Graphics/SVG/1.1/DTD/svg11.dtd">
<!-- Generated by graphviz version 2.40.1 (20161225.0304)
 -->
<!-- Title: dependency&#45;cruiser output Pages: 1 -->
<svg width="626pt" height="591pt"
 viewBox="0.00 0.00 625.53 591.00" xmlns="http://www.w3.org/2000/svg" xmlns:xlink="http://www.w3.org/1999/xlink">
<g id="graph0" class="graph" transform="scale(1 1) rotate(0) translate(4 587)">
<title>dependency&#45;cruiser output</title>
<polygon fill="#ffffff" stroke="transparent" points="-4,4 -4,-587 621.5327,-587 621.5327,4 -4,4"/>
<g id="clust1" class="cluster">
<title>cluster_src</title>
<path fill="#ffffff" stroke="#000000" stroke-width="2" d="M20,-8C20,-8 597.5327,-8 597.5327,-8 603.5327,-8 609.5327,-14 609.5327,-20 609.5327,-20 609.5327,-563 609.5327,-563 609.5327,-569 603.5327,-575 597.5327,-575 597.5327,-575 20,-575 20,-575 14,-575 8,-569 8,-563 8,-563 8,-20 8,-20 8,-14 14,-8 20,-8"/>
<text text-anchor="middle" x="308.7664" y="-563.8" font-family="Helvetica,sans-Serif" font-weight="bold" font-size="9.00" fill="#000000">src</text>
</g>
<g id="clust2" class="cluster">
<title>cluster_src/DataModels</title>
<path fill="#ffffff" stroke="#000000" stroke-width="2" d="M431.4822,-174C431.4822,-174 589.5327,-174 589.5327,-174 595.5327,-174 601.5327,-180 601.5327,-186 601.5327,-186 601.5327,-242 601.5327,-242 601.5327,-248 595.5327,-254 589.5327,-254 589.5327,-254 431.4822,-254 431.4822,-254 425.4822,-254 419.4822,-248 419.4822,-242 419.4822,-242 419.4822,-186 419.4822,-186 419.4822,-180 425.4822,-174 431.4822,-174"/>
<text text-anchor="middle" x="510.5074" y="-242.8" font-family="Helvetica,sans-Serif" font-weight="bold" font-size="9.00" fill="#000000">DataModels</text>
</g>
<g id="clust3" class="cluster">
<title>cluster_src/Entities</title>
<path fill="#ffffff" stroke="#000000" stroke-width="2" d="M307.3469,-408C307.3469,-408 583.8616,-408 583.8616,-408 589.8616,-408 595.8616,-414 595.8616,-420 595.8616,-420 595.8616,-538 595.8616,-538 595.8616,-544 589.8616,-550 583.8616,-550 583.8616,-550 307.3469,-550 307.3469,-550 301.3469,-550 295.3469,-544 295.3469,-538 295.3469,-538 295.3469,-420 295.3469,-420 295.3469,-414 301.3469,-408 307.3469,-408"/>
<text text-anchor="middle" x="445.6042" y="-538.8" font-family="Helvetica,sans-Serif" font-weight="bold" font-size="9.00" fill="#000000">Entities</text>
</g>
<g id="clust4" class="cluster">
<title>cluster_src/Entities/__test__</title>
<path fill="#ffffff" stroke="#000000" stroke-width="2" d="M315.3469,-416C315.3469,-416 377.3733,-416 377.3733,-416 383.3733,-416 389.3733,-422 389.3733,-428 389.3733,-428 389.3733,-513 389.3733,-513 389.3733,-519 383.3733,-525 377.3733,-525 377.3733,-525 315.3469,-525 315.3469,-525 309.3469,-525 303.3469,-519 303.3469,-513 303.3469,-513 303.3469,-428 303.3469,-428 303.3469,-422 309.3469,-416 315.3469,-416"/>
<text text-anchor="middle" x="346.3601" y="-513.8" font-family="Helvetica,sans-Serif" font-weight="bold" font-size="9.00" fill="#000000">__test__</text>
</g>
<g id="clust5" class="cluster">
<title>cluster_src/InMemoryDataModelProvider</title>
<path fill="#ffffff" stroke="#000000" stroke-width="2" d="M147.0288,-174C147.0288,-174 394.9668,-174 394.9668,-174 400.9668,-174 406.9668,-180 406.9668,-186 406.9668,-186 406.9668,-388 406.9668,-388 406.9668,-394 400.9668,-400 394.9668,-400 394.9668,-400 147.0288,-400 147.0288,-400 141.0288,-400 135.0288,-394 135.0288,-388 135.0288,-388 135.0288,-186 135.0288,-186 135.0288,-180 141.0288,-174 147.0288,-174"/>
<text text-anchor="middle" x="270.9978" y="-388.8" font-family="Helvetica,sans-Serif" font-weight="bold" font-size="9.00" fill="#000000">InMemoryDataModelProvider</text>
</g>
<g id="clust6" class="cluster">
<title>cluster_src/InMemoryDataModelProvider/__test__</title>
<path fill="#ffffff" stroke="#000000" stroke-width="2" d="M155.0288,-237C155.0288,-237 273.7534,-237 273.7534,-237 279.7534,-237 285.7534,-243 285.7534,-249 285.7534,-249 285.7534,-363 285.7534,-363 285.7534,-369 279.7534,-375 273.7534,-375 273.7534,-375 155.0288,-375 155.0288,-375 149.0288,-375 143.0288,-369 143.0288,-363 143.0288,-363 143.0288,-249 143.0288,-249 143.0288,-243 149.0288,-237 155.0288,-237"/>
<text text-anchor="middle" x="214.3911" y="-363.8" font-family="Helvetica,sans-Serif" font-weight="bold" font-size="9.00" fill="#000000">__test__</text>
</g>
<g id="clust7" class="cluster">
<title>cluster_src/UseCases</title>
<path fill="#ffffff" stroke="#000000" stroke-width="2" d="M28,-42C28,-42 489.9976,-42 489.9976,-42 495.9976,-42 501.9976,-48 501.9976,-54 501.9976,-54 501.9976,-154 501.9976,-154 501.9976,-160 495.9976,-166 489.9976,-166 489.9976,-166 28,-166 28,-166 22,-166 16,-160 16,-154 16,-154 16,-54 16,-54 16,-48 22,-42 28,-42"/>
<text text-anchor="middle" x="258.9988" y="-154.8" font-family="Helvetica,sans-Serif" font-weight="bold" font-size="9.00" fill="#000000">UseCases</text>
</g>
<g id="clust8" class="cluster">
<title>cluster_src/UseCases/__test__</title>
<path fill="#ffffff" stroke="#000000" stroke-width="2" d="M36,-61C36,-61 115.0288,-61 115.0288,-61 121.0288,-61 127.0288,-67 127.0288,-73 127.0288,-73 127.0288,-129 127.0288,-129 127.0288,-135 121.0288,-141 115.0288,-141 115.0288,-141 36,-141 36,-141 30,-141 24,-135 24,-129 24,-129 24,-73 24,-73 24,-67 30,-61 36,-61"/>
<text text-anchor="middle" x="75.5144" y="-129.8" font-family="Helvetica,sans-Serif" font-weight="bold" font-size="9.00" fill="#000000">__test__</text>
</g>
<!-- src/DataModels/DataConverter.ts -->
<g id="node1" class="node">
<title>src/DataModels/DataConverter.ts</title>
<g id="a_node1"><a xlink:href="src/DataModels/DataConverter.ts" xlink:title="DataConverter.ts">
<path fill="#ddfeff" stroke="#000000" d="M587.6349,-199.5C587.6349,-199.5 515.8954,-199.5 515.8954,-199.5 513.062,-199.5 510.2287,-196.6667 510.2287,-193.8333 510.2287,-193.8333 510.2287,-188.1667 510.2287,-188.1667 510.2287,-185.3333 513.062,-182.5 515.8954,-182.5 515.8954,-182.5 587.6349,-182.5 587.6349,-182.5 590.4682,-182.5 593.3016,-185.3333 593.3016,-188.1667 593.3016,-188.1667 593.3016,-193.8333 593.3016,-193.8333 593.3016,-196.6667 590.4682,-199.5 587.6349,-199.5"/>
<text text-anchor="middle" x="551.7651" y="-188.3" font-family="Helvetica,sans-Serif" font-size="9.00" fill="#000000">DataConverter.ts</text>
</a>
</g>
</g>
<!-- src/DataModels/Model.ts -->
<g id="node2" class="node">
<title>src/DataModels/Model.ts</title>
<g id="a_node2"><a xlink:href="src/DataModels/Model.ts" xlink:title="Model.ts">
<path fill="#ddfeff" stroke="#000000" d="M573.0985,-228.5C573.0985,-228.5 530.4318,-228.5 530.4318,-228.5 527.5985,-228.5 524.7651,-225.6667 524.7651,-222.8333 524.7651,-222.8333 524.7651,-217.1667 524.7651,-217.1667 524.7651,-214.3333 527.5985,-211.5 530.4318,-211.5 530.4318,-211.5 573.0985,-211.5 573.0985,-211.5 575.9318,-211.5 578.7651,-214.3333 578.7651,-217.1667 578.7651,-217.1667 578.7651,-222.8333 578.7651,-222.8333 578.7651,-225.6667 575.9318,-228.5 573.0985,-228.5"/>
<text text-anchor="middle" x="551.7651" y="-217.3" font-family="Helvetica,sans-Serif" font-size="9.00" fill="#000000">Model.ts</text>
</a>
</g>
</g>
<!-- src/DataModels/index.ts -->
<g id="node3" class="node">
<title>src/DataModels/index.ts</title>
<g id="a_node3"><a xlink:href="src/DataModels/index.ts" xlink:title="index.ts">
<path fill="#ddfeff" stroke="#000000" d="M475.8155,-199.5C475.8155,-199.5 433.1488,-199.5 433.1488,-199.5 430.3155,-199.5 427.4822,-196.6667 427.4822,-193.8333 427.4822,-193.8333 427.4822,-188.1667 427.4822,-188.1667 427.4822,-185.3333 430.3155,-182.5 433.1488,-182.5 433.1488,-182.5 475.8155,-182.5 475.8155,-182.5 478.6488,-182.5 481.4822,-185.3333 481.4822,-188.1667 481.4822,-188.1667 481.4822,-193.8333 481.4822,-193.8333 481.4822,-196.6667 478.6488,-199.5 475.8155,-199.5"/>
<text text-anchor="middle" x="454.4822" y="-188.3" font-family="Helvetica,sans-Serif" font-size="9.00" fill="#000000">index.ts</text>
</a>
</g>
</g>
<!-- src/DataModels/index.ts&#45;&gt;src/DataModels/DataConverter.ts -->
<g id="edge1" class="edge">
<title>src/DataModels/index.ts&#45;&gt;src/DataModels/DataConverter.ts</title>
<path fill="none" stroke="#000000" stroke-width="2" stroke-opacity="0.466667" d="M481.5809,-191C487.1995,-191 493.2987,-191 499.4768,-191"/>
<polygon fill="#000000" fill-opacity="0.466667" stroke="#000000" stroke-width="2" stroke-opacity="0.466667" points="499.8776,-194.5001 509.8776,-191 499.8776,-187.5001 499.8776,-194.5001"/>
</g>
<!-- src/DataModels/index.ts&#45;&gt;src/DataModels/Model.ts -->
<g id="edge2" class="edge">
<title>src/DataModels/index.ts&#45;&gt;src/DataModels/Model.ts</title>
<path fill="none" stroke="#000000" stroke-width="2" stroke-opacity="0.466667" d="M481.5809,-199.0781C491.8255,-202.132 503.6677,-205.6622 514.6728,-208.9428"/>
<polygon fill="#000000" fill-opacity="0.466667" stroke="#000000" stroke-width="2" stroke-opacity="0.466667" points="513.8912,-212.3619 524.4743,-211.8646 515.891,-205.6536 513.8912,-212.3619"/>
</g>
<!-- src/Entities/Event.ts -->
<g id="node4" class="node">
<title>src/Entities/Event.ts</title>
<g id="a_node4"><a xlink:href="src/Entities/Event.ts" xlink:title="Event.ts">
<path fill="#ddfeff" stroke="#000000" d="M573.0985,-491.5C573.0985,-491.5 530.4318,-491.5 530.4318,-491.5 527.5985,-491.5 524.7651,-488.6667 524.7651,-485.8333 524.7651,-485.8333 524.7651,-480.1667 524.7651,-480.1667 524.7651,-477.3333 527.5985,-474.5 530.4318,-474.5 530.4318,-474.5 573.0985,-474.5 573.0985,-474.5 575.9318,-474.5 578.7651,-477.3333 578.7651,-480.1667 578.7651,-480.1667 578.7651,-485.8333 578.7651,-485.8333 578.7651,-488.6667 575.9318,-491.5 573.0985,-491.5"/>
<text text-anchor="middle" x="551.7651" y="-480.3" font-family="Helvetica,sans-Serif" font-size="9.00" fill="#000000">Event.ts</text>
</a>
</g>
</g>
<!-- src/Entities/Item.ts -->
<g id="node5" class="node">
<title>src/Entities/Item.ts</title>
<g id="a_node5"><a xlink:href="src/Entities/Item.ts" xlink:title="Item.ts">
<path fill="#ddfeff" stroke="#000000" d="M573.0985,-520.5C573.0985,-520.5 530.4318,-520.5 530.4318,-520.5 527.5985,-520.5 524.7651,-517.6667 524.7651,-514.8333 524.7651,-514.8333 524.7651,-509.1667 524.7651,-509.1667 524.7651,-506.3333 527.5985,-503.5 530.4318,-503.5 530.4318,-503.5 573.0985,-503.5 573.0985,-503.5 575.9318,-503.5 578.7651,-506.3333 578.7651,-509.1667 578.7651,-509.1667 578.7651,-514.8333 578.7651,-514.8333 578.7651,-517.6667 575.9318,-520.5 573.0985,-520.5"/>
<text text-anchor="middle" x="551.7651" y="-509.3" font-family="Helvetica,sans-Serif" font-size="9.00" fill="#000000">Item.ts</text>
</a>
</g>
</g>
<!-- src/Entities/Transaction.ts -->
<g id="node6" class="node">
<title>src/Entities/Transaction.ts</title>
<g id="a_node6"><a xlink:href="src/Entities/Transaction.ts" xlink:title="Transaction.ts">
<path fill="#ddfeff" stroke="#000000" d="M582.2916,-433.5C582.2916,-433.5 521.2387,-433.5 521.2387,-433.5 518.4053,-433.5 515.572,-430.6667 515.572,-427.8333 515.572,-427.8333 515.572,-422.1667 515.572,-422.1667 515.572,-419.3333 518.4053,-416.5 521.2387,-416.5 521.2387,-416.5 582.2916,-416.5 582.2916,-416.5 585.1249,-416.5 587.9583,-419.3333 587.9583,-422.1667 587.9583,-422.1667 587.9583,-427.8333 587.9583,-427.8333 587.9583,-430.6667 585.1249,-433.5 582.2916,-433.5"/>
<text text-anchor="middle" x="551.7651" y="-422.3" font-family="Helvetica,sans-Serif" font-size="9.00" fill="#000000">Transaction.ts</text>
</a>
</g>
</g>
<!-- src/Entities/User.ts -->
<g id="node7" class="node">
<title>src/Entities/User.ts</title>
<g id="a_node7"><a xlink:href="src/Entities/User.ts" xlink:title="User.ts">
<path fill="#ddfeff" stroke="#000000" d="M573.0985,-462.5C573.0985,-462.5 530.4318,-462.5 530.4318,-462.5 527.5985,-462.5 524.7651,-459.6667 524.7651,-456.8333 524.7651,-456.8333 524.7651,-451.1667 524.7651,-451.1667 524.7651,-448.3333 527.5985,-445.5 530.4318,-445.5 530.4318,-445.5 573.0985,-445.5 573.0985,-445.5 575.9318,-445.5 578.7651,-448.3333 578.7651,-451.1667 578.7651,-451.1667 578.7651,-456.8333 578.7651,-456.8333 578.7651,-459.6667 575.9318,-462.5 573.0985,-462.5"/>
<text text-anchor="middle" x="551.7651" y="-451.3" font-family="Helvetica,sans-Serif" font-size="9.00" fill="#000000">User.ts</text>
</a>
</g>
</g>
<!-- src/Entities/__test__/Event.spec.ts -->
<g id="node8" class="node">
<title>src/Entities/__test__/Event.spec.ts</title>
<g id="a_node8"><a xlink:href="src/Entities/__test__/Event.spec.ts" xlink:title="Event.spec.ts">
<path fill="#ddfeff" stroke="#000000" d="M375.7198,-441.5C375.7198,-441.5 317.0004,-441.5 317.0004,-441.5 314.1671,-441.5 311.3337,-438.6667 311.3337,-435.8333 311.3337,-435.8333 311.3337,-430.1667 311.3337,-430.1667 311.3337,-427.3333 314.1671,-424.5 317.0004,-424.5 317.0004,-424.5 375.7198,-424.5 375.7198,-424.5 378.5531,-424.5 381.3865,-427.3333 381.3865,-430.1667 381.3865,-430.1667 381.3865,-435.8333 381.3865,-435.8333 381.3865,-438.6667 378.5531,-441.5 375.7198,-441.5"/>
<text text-anchor="middle" x="346.3601" y="-430.3" font-family="Helvetica,sans-Serif" font-size="9.00" fill="#000000">Event.spec.ts</text>
</a>
</g>
</g>
<!-- src/Entities/index.ts -->
<g id="node11" class="node">
<title>src/Entities/index.ts</title>
<g id="a_node11"><a xlink:href="src/Entities/index.ts" xlink:title="index.ts">
<path fill="#ddfeff" stroke="#000000" d="M475.8155,-462.5C475.8155,-462.5 433.1488,-462.5 433.1488,-462.5 430.3155,-462.5 427.4822,-459.6667 427.4822,-456.8333 427.4822,-456.8333 427.4822,-451.1667 427.4822,-451.1667 427.4822,-448.3333 430.3155,-445.5 433.1488,-445.5 433.1488,-445.5 475.8155,-445.5 475.8155,-445.5 478.6488,-445.5 481.4822,-448.3333 481.4822,-451.1667 481.4822,-451.1667 481.4822,-456.8333 481.4822,-456.8333 481.4822,-459.6667 478.6488,-462.5 475.8155,-462.5"/>
<text text-anchor="middle" x="454.4822" y="-451.3" font-family="Helvetica,sans-Serif" font-size="9.00" fill="#000000">index.ts</text>
</a>
</g>
</g>
<!-- src/Entities/__test__/Event.spec.ts&#45;&gt;src/Entities/index.ts -->
<g id="edge3" class="edge">
<title>src/Entities/__test__/Event.spec.ts&#45;&gt;src/Entities/index.ts</title>
<path fill="none" stroke="#000000" stroke-width="2" stroke-opacity="0.466667" d="M381.4642,-439.8181C393.0056,-442.0597 405.8669,-444.5577 417.5406,-446.825"/>
<polygon fill="#000000" fill-opacity="0.466667" stroke="#000000" stroke-width="2" stroke-opacity="0.466667" points="416.9466,-450.275 427.4305,-448.7459 418.2813,-443.4034 416.9466,-450.275"/>
</g>
<!-- src/Entities/__test__/Item.spec.ts -->
<g id="node9" class="node">
<title>src/Entities/__test__/Item.spec.ts</title>
<g id="a_node9"><a xlink:href="src/Entities/__test__/Item.spec.ts" xlink:title="Item.spec.ts">
<path fill="#ddfeff" stroke="#000000" d="M372.7109,-499.5C372.7109,-499.5 320.0093,-499.5 320.0093,-499.5 317.176,-499.5 314.3427,-496.6667 314.3427,-493.8333 314.3427,-493.8333 314.3427,-488.1667 314.3427,-488.1667 314.3427,-485.3333 317.176,-482.5 320.0093,-482.5 320.0093,-482.5 372.7109,-482.5 372.7109,-482.5 375.5442,-482.5 378.3775,-485.3333 378.3775,-488.1667 378.3775,-488.1667 378.3775,-493.8333 378.3775,-493.8333 378.3775,-496.6667 375.5442,-499.5 372.7109,-499.5"/>
<text text-anchor="middle" x="346.3601" y="-488.3" font-family="Helvetica,sans-Serif" font-size="9.00" fill="#000000">Item.spec.ts</text>
</a>
</g>
</g>
<!-- src/Entities/__test__/Item.spec.ts&#45;&gt;src/Entities/index.ts -->
<g id="edge4" class="edge">
<title>src/Entities/__test__/Item.spec.ts&#45;&gt;src/Entities/index.ts</title>
<path fill="none" stroke="#000000" stroke-width="2" stroke-opacity="0.466667" d="M378.5122,-484.9791C387.8153,-482.861 397.9023,-480.1953 406.9668,-477 414.5731,-474.3187 422.5646,-470.763 429.7778,-467.2509"/>
<polygon fill="#000000" fill-opacity="0.466667" stroke="#000000" stroke-width="2" stroke-opacity="0.466667" points="431.6786,-470.2118 439.0222,-462.5749 428.519,-463.9654 431.6786,-470.2118"/>
</g>
<!-- src/Entities/__test__/User.spec.ts -->
<g id="node10" class="node">
<title>src/Entities/__test__/User.spec.ts</title>
<g id="a_node10"><a xlink:href="src/Entities/__test__/User.spec.ts" xlink:title="User.spec.ts">
<path fill="#ddfeff" stroke="#000000" d="M373.2171,-470.5C373.2171,-470.5 319.5031,-470.5 319.5031,-470.5 316.6697,-470.5 313.8364,-467.6667 313.8364,-464.8333 313.8364,-464.8333 313.8364,-459.1667 313.8364,-459.1667 313.8364,-456.3333 316.6697,-453.5 319.5031,-453.5 319.5031,-453.5 373.2171,-453.5 373.2171,-453.5 376.0505,-453.5 378.8838,-456.3333 378.8838,-459.1667 378.8838,-459.1667 378.8838,-464.8333 378.8838,-464.8333 378.8838,-467.6667 376.0505,-470.5 373.2171,-470.5"/>
<text text-anchor="middle" x="346.3601" y="-459.3" font-family="Helvetica,sans-Serif" font-size="9.00" fill="#000000">User.spec.ts</text>
</a>
</g>
</g>
<!-- src/Entities/__test__/User.spec.ts&#45;&gt;src/Entities/index.ts -->
<g id="edge5" class="edge">
<title>src/Entities/__test__/User.spec.ts&#45;&gt;src/Entities/index.ts</title>
<path fill="none" stroke="#000000" stroke-width="2" stroke-opacity="0.466667" d="M379.0937,-459.578C391.1362,-458.687 404.8601,-457.6716 417.2684,-456.7535"/>
<polygon fill="#000000" fill-opacity="0.466667" stroke="#000000" stroke-width="2" stroke-opacity="0.466667" points="417.6017,-460.2385 427.3162,-456.01 417.0852,-453.2575 417.6017,-460.2385"/>
</g>
<!-- src/Entities/index.ts&#45;&gt;src/Entities/Event.ts -->
<g id="edge6" class="edge">
<title>src/Entities/index.ts&#45;&gt;src/Entities/Event.ts</title>
<path fill="none" stroke="#000000" stroke-width="2" stroke-opacity="0.466667" d="M481.5809,-462.0781C491.8255,-465.132 503.6677,-468.6622 514.6728,-471.9428"/>
<polygon fill="#000000" fill-opacity="0.466667" stroke="#000000" stroke-width="2" stroke-opacity="0.466667" points="513.8912,-475.3619 524.4743,-474.8646 515.891,-468.6536 513.8912,-475.3619"/>
</g>
<!-- src/Entities/index.ts&#45;&gt;src/Entities/Item.ts -->
<g id="edge7" class="edge">
<title>src/Entities/index.ts&#45;&gt;src/Entities/Item.ts</title>
<path fill="none" stroke="#000000" stroke-width="2" stroke-opacity="0.466667" d="M463.2133,-462.5323C473.6019,-472.2807 491.8343,-488.1525 509.9976,-498 511.712,-498.9295 513.4993,-499.8127 515.3279,-500.6497"/>
<polygon fill="#000000" fill-opacity="0.466667" stroke="#000000" stroke-width="2" stroke-opacity="0.466667" points="514.0879,-503.9237 524.6698,-504.4489 516.7251,-497.4395 514.0879,-503.9237"/>
</g>
<!-- src/Entities/index.ts&#45;&gt;src/Entities/Transaction.ts -->
<g id="edge8" class="edge">
<title>src/Entities/index.ts&#45;&gt;src/Entities/Transaction.ts</title>
<path fill="none" stroke="#000000" stroke-width="2" stroke-opacity="0.466667" d="M481.5809,-445.9219C491.3801,-443.0008 502.641,-439.6439 513.2329,-436.4864"/>
<polygon fill="#000000" fill-opacity="0.466667" stroke="#000000" stroke-width="2" stroke-opacity="0.466667" points="514.5301,-439.752 523.1135,-433.541 512.5303,-433.0437 514.5301,-439.752"/>
</g>
<!-- src/Entities/index.ts&#45;&gt;src/Entities/User.ts -->
<g id="edge9" class="edge">
<title>src/Entities/index.ts&#45;&gt;src/Entities/User.ts</title>
<path fill="none" stroke="#000000" stroke-width="2" stroke-opacity="0.466667" d="M481.5809,-454C491.7209,-454 503.4262,-454 514.3356,-454"/>
<polygon fill="#000000" fill-opacity="0.466667" stroke="#000000" stroke-width="2" stroke-opacity="0.466667" points="514.4744,-457.5001 524.4743,-454 514.4743,-450.5001 514.4744,-457.5001"/>
</g>
<!-- src/InMemoryDataModelProvider/EventProvider.ts -->
<g id="node12" class="node">
<title>src/InMemoryDataModelProvider/EventProvider.ts</title>
<g id="a_node12"><a xlink:href="src/InMemoryDataModelProvider/EventProvider.ts" xlink:title="EventProvider.ts">
<path fill="#ddfeff" stroke="#000000" d="M381.2304,-230.5C381.2304,-230.5 311.4898,-230.5 311.4898,-230.5 308.6565,-230.5 305.8231,-227.6667 305.8231,-224.8333 305.8231,-224.8333 305.8231,-219.1667 305.8231,-219.1667 305.8231,-216.3333 308.6565,-213.5 311.4898,-213.5 311.4898,-213.5 381.2304,-213.5 381.2304,-213.5 384.0637,-213.5 386.8971,-216.3333 386.8971,-219.1667 386.8971,-219.1667 386.8971,-224.8333 386.8971,-224.8333 386.8971,-227.6667 384.0637,-230.5 381.2304,-230.5"/>
<text text-anchor="middle" x="346.3601" y="-219.3" font-family="Helvetica,sans-Serif" font-size="9.00" fill="#000000">EventProvider.ts</text>
</a>
</g>
</g>
<!-- src/InMemoryDataModelProvider/ItemProvider.ts -->
<g id="node13" class="node">
<title>src/InMemoryDataModelProvider/ItemProvider.ts</title>
<g id="a_node13"><a xlink:href="src/InMemoryDataModelProvider/ItemProvider.ts" xlink:title="ItemProvider.ts">
<path fill="#ddfeff" stroke="#000000" d="M378.7183,-276.5C378.7183,-276.5 314.0019,-276.5 314.0019,-276.5 311.1685,-276.5 308.3352,-273.6667 308.3352,-270.8333 308.3352,-270.8333 308.3352,-265.1667 308.3352,-265.1667 308.3352,-262.3333 311.1685,-259.5 314.0019,-259.5 314.0019,-259.5 378.7183,-259.5 378.7183,-259.5 381.5517,-259.5 384.385,-262.3333 384.385,-265.1667 384.385,-265.1667 384.385,-270.8333 384.385,-270.8333 384.385,-273.6667 381.5517,-276.5 378.7183,-276.5"/>
<text text-anchor="middle" x="346.3601" y="-265.3" font-family="Helvetica,sans-Serif" font-size="9.00" fill="#000000">ItemProvider.ts</text>
</a>
</g>
</g>
<!-- src/InMemoryDataModelProvider/ProviderFactory.ts -->
<g id="node14" class="node">
<title>src/InMemoryDataModelProvider/ProviderFactory.ts</title>
<g id="a_node14"><a xlink:href="src/InMemoryDataModelProvider/ProviderFactory.ts" xlink:title="ProviderFactory.ts">
<path fill="#ddfeff" stroke="#000000" d="M253.0811,-228.5C253.0811,-228.5 175.7011,-228.5 175.7011,-228.5 172.8678,-228.5 170.0344,-225.6667 170.0344,-222.8333 170.0344,-222.8333 170.0344,-217.1667 170.0344,-217.1667 170.0344,-214.3333 172.8678,-211.5 175.7011,-211.5 175.7011,-211.5 253.0811,-211.5 253.0811,-211.5 255.9145,-211.5 258.7478,-214.3333 258.7478,-217.1667 258.7478,-217.1667 258.7478,-222.8333 258.7478,-222.8333 258.7478,-225.6667 255.9145,-228.5 253.0811,-228.5"/>
<text text-anchor="middle" x="214.3911" y="-217.3" font-family="Helvetica,sans-Serif" font-size="9.00" fill="#000000">ProviderFactory.ts</text>
</a>
</g>
</g>
<!-- src/InMemoryDataModelProvider/ProviderFactory.ts&#45;&gt;src/InMemoryDataModelProvider/EventProvider.ts -->
<g id="edge10" class="edge">
<title>src/InMemoryDataModelProvider/ProviderFactory.ts&#45;&gt;src/InMemoryDataModelProvider/EventProvider.ts</title>
<path fill="none" stroke="#000000" stroke-width="2" stroke-opacity="0.466667" d="M258.702,-220.6715C270.4008,-220.8488 283.1221,-221.0416 295.1525,-221.2239"/>
<polygon fill="#000000" fill-opacity="0.466667" stroke="#000000" stroke-width="2" stroke-opacity="0.466667" points="295.4519,-224.7288 305.5038,-221.3808 295.5581,-217.7296 295.4519,-224.7288"/>
</g>
<!-- src/InMemoryDataModelProvider/ProviderFactory.ts&#45;&gt;src/InMemoryDataModelProvider/ItemProvider.ts -->
<g id="edge11" class="edge">
<title>src/InMemoryDataModelProvider/ProviderFactory.ts&#45;&gt;src/InMemoryDataModelProvider/ItemProvider.ts</title>
<path fill="none" stroke="#000000" stroke-width="2" stroke-opacity="0.466667" d="M258.772,-226.437C267.8446,-228.3813 277.222,-230.8618 285.7534,-234 299.5532,-239.0762 313.9498,-247.0251 325.2473,-253.9609"/>
<polygon fill="#000000" fill-opacity="0.466667" stroke="#000000" stroke-width="2" stroke-opacity="0.466667" points="323.6074,-257.0653 333.9272,-259.4635 327.3553,-251.1532 323.6074,-257.0653"/>
</g>
<!-- src/InMemoryDataModelProvider/TransactionProvider.ts -->
<g id="node15" class="node">
<title>src/InMemoryDataModelProvider/TransactionProvider.ts</title>
<g id="a_node15"><a xlink:href="src/InMemoryDataModelProvider/TransactionProvider.ts" xlink:title="TransactionProvider.ts">
<path fill="#ddfeff" stroke="#000000" d="M393.407,-313.5C393.407,-313.5 299.3132,-313.5 299.3132,-313.5 296.4798,-313.5 293.6465,-310.6667 293.6465,-307.8333 293.6465,-307.8333 293.6465,-302.1667 293.6465,-302.1667 293.6465,-299.3333 296.4798,-296.5 299.3132,-296.5 299.3132,-296.5 393.407,-296.5 393.407,-296.5 396.2404,-296.5 399.0737,-299.3333 399.0737,-302.1667 399.0737,-302.1667 399.0737,-307.8333 399.0737,-307.8333 399.0737,-310.6667 396.2404,-313.5 393.407,-313.5"/>
<text text-anchor="middle" x="346.3601" y="-302.3" font-family="Helvetica,sans-Serif" font-size="9.00" fill="#000000">TransactionProvider.ts</text>
</a>
</g>
</g>
<!-- src/InMemoryDataModelProvider/ProviderFactory.ts&#45;&gt;src/InMemoryDataModelProvider/TransactionProvider.ts -->
<g id="edge12" class="edge">
<title>src/InMemoryDataModelProvider/ProviderFactory.ts&#45;&gt;src/InMemoryDataModelProvider/TransactionProvider.ts</title>
<path fill="none" stroke="#000000" stroke-width="2" stroke-opacity="0.466667" d="M258.8669,-220.3843C268.8814,-222.5555 278.6383,-226.6543 285.7534,-234 301.1058,-249.8499 280.0806,-265.6804 293.7534,-283 296.3029,-286.2295 299.4112,-288.9902 302.8296,-291.3493"/>
<polygon fill="#000000" fill-opacity="0.466667" stroke="#000000" stroke-width="2" stroke-opacity="0.466667" points="301.395,-294.5584 311.8242,-296.4241 304.8347,-288.4619 301.395,-294.5584"/>
</g>
<!-- src/InMemoryDataModelProvider/UserProvider.ts -->
<g id="node16" class="node">
<title>src/InMemoryDataModelProvider/UserProvider.ts</title>
<g id="a_node16"><a xlink:href="src/InMemoryDataModelProvider/UserProvider.ts" xlink:title="UserProvider.ts">
<path fill="#ddfeff" stroke="#000000" d="M379.2183,-346.5C379.2183,-346.5 313.5019,-346.5 313.5019,-346.5 310.6685,-346.5 307.8352,-343.6667 307.8352,-340.8333 307.8352,-340.8333 307.8352,-335.1667 307.8352,-335.1667 307.8352,-332.3333 310.6685,-329.5 313.5019,-329.5 313.5019,-329.5 379.2183,-329.5 379.2183,-329.5 382.0517,-329.5 384.885,-332.3333 384.885,-335.1667 384.885,-335.1667 384.885,-340.8333 384.885,-340.8333 384.885,-343.6667 382.0517,-346.5 379.2183,-346.5"/>
<text text-anchor="middle" x="346.3601" y="-335.3" font-family="Helvetica,sans-Serif" font-size="9.00" fill="#000000">UserProvider.ts</text>
</a>
</g>
</g>
<!-- src/InMemoryDataModelProvider/ProviderFactory.ts&#45;&gt;src/InMemoryDataModelProvider/UserProvider.ts -->
<g id="edge13" class="edge">
<title>src/InMemoryDataModelProvider/ProviderFactory.ts&#45;&gt;src/InMemoryDataModelProvider/UserProvider.ts</title>
<path fill="none" stroke="#000000" stroke-width="2" stroke-opacity="0.466667" d="M258.8577,-219.9662C268.9951,-222.1227 278.8116,-226.3193 285.7534,-234 298.6232,-248.2395 281.8806,-304.9192 293.7534,-320 295.2331,-321.8795 296.9193,-323.5639 298.7582,-325.0731"/>
<polygon fill="#000000" fill-opacity="0.466667" stroke="#000000" stroke-width="2" stroke-opacity="0.466667" points="297.2984,-328.2887 307.6308,-330.6321 301.0149,-322.3568 297.2984,-328.2887"/>
</g>
<!-- src/InMemoryDataModelProvider/__test__/EventProvider.spec.ts -->
<g id="node17" class="node">
<title>src/InMemoryDataModelProvider/__test__/EventProvider.spec.ts</title>
<g id="a_node17"><a xlink:href="src/InMemoryDataModelProvider/__test__/EventProvider.spec.ts" xlink:title="EventProvider.spec.ts">
<path fill="#ddfeff" stroke="#000000" d="M260.2713,-262.5C260.2713,-262.5 168.5109,-262.5 168.5109,-262.5 165.6776,-262.5 162.8442,-259.6667 162.8442,-256.8333 162.8442,-256.8333 162.8442,-251.1667 162.8442,-251.1667 162.8442,-248.3333 165.6776,-245.5 168.5109,-245.5 168.5109,-245.5 260.2713,-245.5 260.2713,-245.5 263.1047,-245.5 265.938,-248.3333 265.938,-251.1667 265.938,-251.1667 265.938,-256.8333 265.938,-256.8333 265.938,-259.6667 263.1047,-262.5 260.2713,-262.5"/>
<text text-anchor="middle" x="214.3911" y="-251.3" font-family="Helvetica,sans-Serif" font-size="9.00" fill="#000000">EventProvider.spec.ts</text>
</a>
</g>
</g>
<!-- src/InMemoryDataModelProvider/__test__/EventProvider.spec.ts&#45;&gt;src/InMemoryDataModelProvider/EventProvider.ts -->
<g id="edge14" class="edge">
<title>src/InMemoryDataModelProvider/__test__/EventProvider.spec.ts&#45;&gt;src/InMemoryDataModelProvider/EventProvider.ts</title>
<path fill="none" stroke="#000000" stroke-width="2" stroke-opacity="0.466667" d="M266.0357,-246.2748C272.7023,-244.997 279.412,-243.5698 285.7534,-242 294.8964,-239.7367 304.6501,-236.7712 313.6008,-233.8194"/>
<polygon fill="#000000" fill-opacity="0.466667" stroke="#000000" stroke-width="2" stroke-opacity="0.466667" points="314.9454,-237.0592 323.2898,-230.5307 312.6955,-230.4306 314.9454,-237.0592"/>
</g>
<!-- src/InMemoryDataModelProvider/__test__/ItemProvider.spec.ts -->
<g id="node18" class="node">
<title>src/InMemoryDataModelProvider/__test__/ItemProvider.spec.ts</title>
<g id="a_node18"><a xlink:href="src/InMemoryDataModelProvider/__test__/ItemProvider.spec.ts" xlink:title="ItemProvider.spec.ts">
<path fill="#ddfeff" stroke="#000000" d="M257.2617,-291.5C257.2617,-291.5 171.5205,-291.5 171.5205,-291.5 168.6872,-291.5 165.8539,-288.6667 165.8539,-285.8333 165.8539,-285.8333 165.8539,-280.1667 165.8539,-280.1667 165.8539,-277.3333 168.6872,-274.5 171.5205,-274.5 171.5205,-274.5 257.2617,-274.5 257.2617,-274.5 260.095,-274.5 262.9283,-277.3333 262.9283,-280.1667 262.9283,-280.1667 262.9283,-285.8333 262.9283,-285.8333 262.9283,-288.6667 260.095,-291.5 257.2617,-291.5"/>
<text text-anchor="middle" x="214.3911" y="-280.3" font-family="Helvetica,sans-Serif" font-size="9.00" fill="#000000">ItemProvider.spec.ts</text>
</a>
</g>
</g>
<!-- src/InMemoryDataModelProvider/__test__/ItemProvider.spec.ts&#45;&gt;src/InMemoryDataModelProvider/ItemProvider.ts -->
<g id="edge15" class="edge">
<title>src/InMemoryDataModelProvider/__test__/ItemProvider.spec.ts&#45;&gt;src/InMemoryDataModelProvider/ItemProvider.ts</title>
<path fill="none" stroke="#000000" stroke-width="2" stroke-opacity="0.466667" d="M263.1566,-277.4572C274.512,-276.1665 286.599,-274.7926 297.9395,-273.5036"/>
<polygon fill="#000000" fill-opacity="0.466667" stroke="#000000" stroke-width="2" stroke-opacity="0.466667" points="298.5613,-276.9556 308.102,-272.3485 297.7707,-270.0004 298.5613,-276.9556"/>
</g>
<!-- src/InMemoryDataModelProvider/__test__/TransactionProvider.spec.ts -->
<g id="node19" class="node">
<title>src/InMemoryDataModelProvider/__test__/TransactionProvider.spec.ts</title>
<g id="a_node19"><a xlink:href="src/InMemoryDataModelProvider/__test__/TransactionProvider.spec.ts" xlink:title="TransactionProvider.spec.ts">
<path fill="#ddfeff" stroke="#000000" d="M271.9494,-320.5C271.9494,-320.5 156.8329,-320.5 156.8329,-320.5 153.9995,-320.5 151.1662,-317.6667 151.1662,-314.8333 151.1662,-314.8333 151.1662,-309.1667 151.1662,-309.1667 151.1662,-306.3333 153.9995,-303.5 156.8329,-303.5 156.8329,-303.5 271.9494,-303.5 271.9494,-303.5 274.7827,-303.5 277.616,-306.3333 277.616,-309.1667 277.616,-309.1667 277.616,-314.8333 277.616,-314.8333 277.616,-317.6667 274.7827,-320.5 271.9494,-320.5"/>
<text text-anchor="middle" x="214.3911" y="-309.3" font-family="Helvetica,sans-Serif" font-size="9.00" fill="#000000">TransactionProvider.spec.ts</text>
</a>
</g>
</g>
<!-- src/InMemoryDataModelProvider/__test__/TransactionProvider.spec.ts&#45;&gt;src/InMemoryDataModelProvider/TransactionProvider.ts -->
<g id="edge16" class="edge">
<title>src/InMemoryDataModelProvider/__test__/TransactionProvider.spec.ts&#45;&gt;src/InMemoryDataModelProvider/TransactionProvider.ts</title>
<path fill="none" stroke="#000000" stroke-width="2" stroke-opacity="0.466667" d="M277.6699,-308.6435C279.489,-308.547 281.3109,-308.4504 283.13,-308.3539"/>
<polygon fill="#000000" fill-opacity="0.466667" stroke="#000000" stroke-width="2" stroke-opacity="0.466667" points="283.6787,-311.8298 293.4793,-307.8049 283.3079,-304.8396 283.6787,-311.8298"/>
</g>
<!-- src/InMemoryDataModelProvider/__test__/UserProvider.spec.ts -->
<g id="node20" class="node">
<title>src/InMemoryDataModelProvider/__test__/UserProvider.spec.ts</title>
<g id="a_node20"><a xlink:href="src/InMemoryDataModelProvider/__test__/UserProvider.spec.ts" xlink:title="UserProvider.spec.ts">
<path fill="#ddfeff" stroke="#000000" d="M258.2591,-349.5C258.2591,-349.5 170.5231,-349.5 170.5231,-349.5 167.6898,-349.5 164.8564,-346.6667 164.8564,-343.8333 164.8564,-343.8333 164.8564,-338.1667 164.8564,-338.1667 164.8564,-335.3333 167.6898,-332.5 170.5231,-332.5 170.5231,-332.5 258.2591,-332.5 258.2591,-332.5 261.0925,-332.5 263.9258,-335.3333 263.9258,-338.1667 263.9258,-338.1667 263.9258,-343.8333 263.9258,-343.8333 263.9258,-346.6667 261.0925,-349.5 258.2591,-349.5"/>
<text text-anchor="middle" x="214.3911" y="-338.3" font-family="Helvetica,sans-Serif" font-size="9.00" fill="#000000">UserProvider.spec.ts</text>
</a>
</g>
</g>
<!-- src/InMemoryDataModelProvider/__test__/UserProvider.spec.ts&#45;&gt;src/InMemoryDataModelProvider/UserProvider.ts -->
<g id="edge17" class="edge">
<title>src/InMemoryDataModelProvider/__test__/UserProvider.spec.ts&#45;&gt;src/InMemoryDataModelProvider/UserProvider.ts</title>
<path fill="none" stroke="#000000" stroke-width="2" stroke-opacity="0.466667" d="M264.2829,-339.8658C275.1244,-339.6194 286.583,-339.3589 297.3885,-339.1133"/>
<polygon fill="#000000" fill-opacity="0.466667" stroke="#000000" stroke-width="2" stroke-opacity="0.466667" points="297.5888,-342.6097 307.5066,-338.8832 297.4296,-335.6115 297.5888,-342.6097"/>
</g>
<!-- src/InMemoryDataModelProvider/index.ts -->
<g id="node21" class="node">
<title>src/InMemoryDataModelProvider/index.ts</title>
<g id="a_node21"><a xlink:href="src/InMemoryDataModelProvider/index.ts" xlink:title="index.ts">
<path fill="#ddfeff" stroke="#000000" d="M235.7244,-199.5C235.7244,-199.5 193.0578,-199.5 193.0578,-199.5 190.2244,-199.5 187.3911,-196.6667 187.3911,-193.8333 187.3911,-193.8333 187.3911,-188.1667 187.3911,-188.1667 187.3911,-185.3333 190.2244,-182.5 193.0578,-182.5 193.0578,-182.5 235.7244,-182.5 235.7244,-182.5 238.5578,-182.5 241.3911,-185.3333 241.3911,-188.1667 241.3911,-188.1667 241.3911,-193.8333 241.3911,-193.8333 241.3911,-196.6667 238.5578,-199.5 235.7244,-199.5"/>
<text text-anchor="middle" x="214.3911" y="-188.3" font-family="Helvetica,sans-Serif" font-size="9.00" fill="#000000">index.ts</text>
</a>
</g>
</g>
<!-- src/UseCases/APIConverter.ts -->
<g id="node22" class="node">
<title>src/UseCases/APIConverter.ts</title>
<g id="a_node22"><a xlink:href="src/UseCases/APIConverter.ts" xlink:title="APIConverter.ts">
<path fill="#ddfeff" stroke="#000000" d="M488.3463,-111.5C488.3463,-111.5 420.6181,-111.5 420.6181,-111.5 417.7847,-111.5 414.9514,-108.6667 414.9514,-105.8333 414.9514,-105.8333 414.9514,-100.1667 414.9514,-100.1667 414.9514,-97.3333 417.7847,-94.5 420.6181,-94.5 420.6181,-94.5 488.3463,-94.5 488.3463,-94.5 491.1796,-94.5 494.0129,-97.3333 494.0129,-100.1667 494.0129,-100.1667 494.0129,-105.8333 494.0129,-105.8333 494.0129,-108.6667 491.1796,-111.5 488.3463,-111.5"/>
<text text-anchor="middle" x="454.4822" y="-100.3" font-family="Helvetica,sans-Serif" font-size="9.00" fill="#000000">APIConverter.ts</text>
</a>
</g>
</g>
<!-- src/UseCases/APIModel.ts -->
<g id="node23" class="node">
<title>src/UseCases/APIModel.ts</title>
<g id="a_node23"><a xlink:href="src/UseCases/APIModel.ts" xlink:title="APIModel.ts">
<path fill="#ddfeff" stroke="#000000" d="M372.7152,-67.5C372.7152,-67.5 320.005,-67.5 320.005,-67.5 317.1716,-67.5 314.3383,-64.6667 314.3383,-61.8333 314.3383,-61.8333 314.3383,-56.1667 314.3383,-56.1667 314.3383,-53.3333 317.1716,-50.5 320.005,-50.5 320.005,-50.5 372.7152,-50.5 372.7152,-50.5 375.5486,-50.5 378.3819,-53.3333 378.3819,-56.1667 378.3819,-56.1667 378.3819,-61.8333 378.3819,-61.8333 378.3819,-64.6667 375.5486,-67.5 372.7152,-67.5"/>
<text text-anchor="middle" x="346.3601" y="-56.3" font-family="Helvetica,sans-Serif" font-size="9.00" fill="#000000">APIModel.ts</text>
</a>
</g>
</g>
<!-- src/UseCases/AdminAPI.ts -->
<g id="node24" class="node">
<title>src/UseCases/AdminAPI.ts</title>
<g id="a_node24"><a xlink:href="src/UseCases/AdminAPI.ts" xlink:title="AdminAPI.ts">
<path fill="#ddfeff" stroke="#000000" d="M373.2128,-140.5C373.2128,-140.5 319.5074,-140.5 319.5074,-140.5 316.6741,-140.5 313.8408,-137.6667 313.8408,-134.8333 313.8408,-134.8333 313.8408,-129.1667 313.8408,-129.1667 313.8408,-126.3333 316.6741,-123.5 319.5074,-123.5 319.5074,-123.5 373.2128,-123.5 373.2128,-123.5 376.0461,-123.5 378.8794,-126.3333 378.8794,-129.1667 378.8794,-129.1667 378.8794,-134.8333 378.8794,-134.8333 378.8794,-137.6667 376.0461,-140.5 373.2128,-140.5"/>
<text text-anchor="middle" x="346.3601" y="-129.3" font-family="Helvetica,sans-Serif" font-size="9.00" fill="#000000">AdminAPI.ts</text>
</a>
</g>
</g>
<!-- src/UseCases/AdminAPI.ts&#45;&gt;src/DataModels/index.ts -->
<g id="edge18" class="edge">
<title>src/UseCases/AdminAPI.ts&#45;&gt;src/DataModels/index.ts</title>
<path fill="none" stroke="#000000" stroke-width="2" stroke-opacity="0.466667" d="M362.3139,-140.7057C380.143,-150.4347 409.2233,-166.3031 429.9498,-177.6132"/>
<polygon fill="#000000" fill-opacity="0.466667" stroke="#000000" stroke-width="2" stroke-opacity="0.466667" points="428.3598,-180.7327 438.8145,-182.4505 431.7129,-174.588 428.3598,-180.7327"/>
</g>
<!-- src/UseCases/AdminAPI.ts&#45;&gt;src/Entities/index.ts -->
<g id="edge19" class="edge">
<title>src/UseCases/AdminAPI.ts&#45;&gt;src/Entities/index.ts</title>
<path fill="none" stroke="#000000" stroke-width="2" stroke-opacity="0.466667" d="M368.9053,-140.508C382.3061,-146.8062 398.3271,-156.7772 406.9668,-171 416.9316,-187.4042 412.1867,-238.0088 414.9668,-257 424.6358,-323.05 441.9302,-400.4348 450.0466,-435.2996"/>
<polygon fill="#000000" fill-opacity="0.466667" stroke="#000000" stroke-width="2" stroke-opacity="0.466667" points="446.7288,-436.4809 452.423,-445.4155 453.5433,-434.88 446.7288,-436.4809"/>
</g>
<!-- src/UseCases/AdminAPI.ts&#45;&gt;src/UseCases/APIConverter.ts -->
<g id="edge20" class="edge">
<title>src/UseCases/AdminAPI.ts&#45;&gt;src/UseCases/APIConverter.ts</title>
<path fill="none" stroke="#000000" stroke-width="2" stroke-opacity="0.466667" d="M379.1901,-124.9129C388.2276,-122.8272 398.0072,-120.445 406.9668,-118 410.8004,-116.9538 414.7882,-115.8001 418.7514,-114.6112"/>
<polygon fill="#000000" fill-opacity="0.466667" stroke="#000000" stroke-width="2" stroke-opacity="0.466667" points="419.9234,-117.9125 428.4503,-111.6242 417.8631,-111.2226 419.9234,-117.9125"/>
</g>
<!-- src/UseCases/UserAPI.ts -->
<g id="node25" class="node">
<title>src/UseCases/UserAPI.ts</title>
<g id="a_node25"><a xlink:href="src/UseCases/UserAPI.ts" xlink:title="UserAPI.ts">
<path fill="#ddfeff" stroke="#000000" d="M370.2027,-111.5C370.2027,-111.5 322.5175,-111.5 322.5175,-111.5 319.6842,-111.5 316.8508,-108.6667 316.8508,-105.8333 316.8508,-105.8333 316.8508,-100.1667 316.8508,-100.1667 316.8508,-97.3333 319.6842,-94.5 322.5175,-94.5 322.5175,-94.5 370.2027,-94.5 370.2027,-94.5 373.0361,-94.5 375.8694,-97.3333 375.8694,-100.1667 375.8694,-100.1667 375.8694,-105.8333 375.8694,-105.8333 375.8694,-108.6667 373.0361,-111.5 370.2027,-111.5"/>
<text text-anchor="middle" x="346.3601" y="-100.3" font-family="Helvetica,sans-Serif" font-size="9.00" fill="#000000">UserAPI.ts</text>
</a>
</g>
</g>
<!-- src/UseCases/UserAPI.ts&#45;&gt;src/DataModels/index.ts -->
<g id="edge21" class="edge">
<title>src/UseCases/UserAPI.ts&#45;&gt;src/DataModels/index.ts</title>
<path fill="none" stroke="#000000" stroke-width="2" stroke-opacity="0.466667" d="M376.0897,-103.6398C387.2566,-105.4266 399.1301,-109.4498 406.9668,-118 422.4695,-134.9141 401.8382,-150.1835 414.9668,-169 417.0054,-171.9219 419.5628,-174.4991 422.391,-176.7621"/>
<polygon fill="#000000" fill-opacity="0.466667" stroke="#000000" stroke-width="2" stroke-opacity="0.466667" points="420.5929,-179.7685 430.8727,-182.3329 424.4358,-173.9177 420.5929,-179.7685"/>
</g>
<!-- src/UseCases/UserAPI.ts&#45;&gt;src/Entities/index.ts -->
<g id="edge22" class="edge">
<title>src/UseCases/UserAPI.ts&#45;&gt;src/Entities/index.ts</title>
<path fill="none" stroke="#000000" stroke-width="2" stroke-opacity="0.466667" d="M375.8963,-103.1651C387.3128,-104.8403 399.4203,-108.9091 406.9668,-118 416.8478,-129.9032 412.9963,-241.656 414.9668,-257 423.4698,-323.2102 441.3414,-400.5157 449.8236,-435.3302"/>
<polygon fill="#000000" fill-opacity="0.466667" stroke="#000000" stroke-width="2" stroke-opacity="0.466667" points="446.5216,-436.5588 452.3132,-445.4305 453.3182,-434.8835 446.5216,-436.5588"/>
</g>
<!-- src/UseCases/UserAPI.ts&#45;&gt;src/UseCases/APIConverter.ts -->
<g id="edge23" class="edge">
<title>src/UseCases/UserAPI.ts&#45;&gt;src/UseCases/APIConverter.ts</title>
<path fill="none" stroke="#000000" stroke-width="2" stroke-opacity="0.466667" d="M375.9049,-103C384.8148,-103 394.8518,-103 404.6984,-103"/>
<polygon fill="#000000" fill-opacity="0.466667" stroke="#000000" stroke-width="2" stroke-opacity="0.466667" points="404.8355,-106.5001 414.8355,-103 404.8354,-99.5001 404.8355,-106.5001"/>
</g>
<!-- src/UseCases/__test__/AdminAPI.spec.ts -->
<g id="node26" class="node">
<title>src/UseCases/__test__/AdminAPI.spec.ts</title>
<g id="a_node26"><a xlink:href="src/UseCases/__test__/AdminAPI.spec.ts" xlink:title="AdminAPI.spec.ts">
<path fill="#ddfeff" stroke="#000000" d="M113.3766,-86.5C113.3766,-86.5 37.6523,-86.5 37.6523,-86.5 34.8189,-86.5 31.9856,-83.6667 31.9856,-80.8333 31.9856,-80.8333 31.9856,-75.1667 31.9856,-75.1667 31.9856,-72.3333 34.8189,-69.5 37.6523,-69.5 37.6523,-69.5 113.3766,-69.5 113.3766,-69.5 116.2099,-69.5 119.0432,-72.3333 119.0432,-75.1667 119.0432,-75.1667 119.0432,-80.8333 119.0432,-80.8333 119.0432,-83.6667 116.2099,-86.5 113.3766,-86.5"/>
<text text-anchor="middle" x="75.5144" y="-75.3" font-family="Helvetica,sans-Serif" font-size="9.00" fill="#000000">AdminAPI.spec.ts</text>
</a>
</g>
</g>
<!-- src/UseCases/__test__/AdminAPI.spec.ts&#45;&gt;src/InMemoryDataModelProvider/ProviderFactory.ts -->
<g id="edge24" class="edge">
<title>src/UseCases/__test__/AdminAPI.spec.ts&#45;&gt;src/InMemoryDataModelProvider/ProviderFactory.ts</title>
<path fill="none" stroke="#000000" stroke-width="2" stroke-opacity="0.466667" d="M119.1242,-86.1144C122.1075,-87.9784 124.8057,-90.2456 127.0288,-93 142.8397,-112.5894 118.1768,-187.2987 135.0288,-206 141.563,-213.2512 150.4298,-217.5899 159.8726,-220.065"/>
<polygon fill="#000000" fill-opacity="0.466667" stroke="#000000" stroke-width="2" stroke-opacity="0.466667" points="159.3624,-223.5314 169.848,-222.0137 160.7046,-216.6613 159.3624,-223.5314"/>
</g>
<!-- src/UseCases/index.ts -->
<g id="node28" class="node">
<title>src/UseCases/index.ts</title>
<g id="a_node28"><a xlink:href="src/UseCases/index.ts" xlink:title="index.ts">
<path fill="#ddfeff" stroke="#000000" d="M235.7244,-87.5C235.7244,-87.5 193.0578,-87.5 193.0578,-87.5 190.2244,-87.5 187.3911,-84.6667 187.3911,-81.8333 187.3911,-81.8333 187.3911,-76.1667 187.3911,-76.1667 187.3911,-73.3333 190.2244,-70.5 193.0578,-70.5 193.0578,-70.5 235.7244,-70.5 235.7244,-70.5 238.5578,-70.5 241.3911,-73.3333 241.3911,-76.1667 241.3911,-76.1667 241.3911,-81.8333 241.3911,-81.8333 241.3911,-84.6667 238.5578,-87.5 235.7244,-87.5"/>
<text text-anchor="middle" x="214.3911" y="-76.3" font-family="Helvetica,sans-Serif" font-size="9.00" fill="#000000">index.ts</text>
</a>
</g>
</g>
<!-- src/UseCases/__test__/AdminAPI.spec.ts&#45;&gt;src/UseCases/index.ts -->
<g id="edge25" class="edge">
<title>src/UseCases/__test__/AdminAPI.spec.ts&#45;&gt;src/UseCases/index.ts</title>
<path fill="none" stroke="#000000" stroke-width="2" stroke-opacity="0.466667" d="M119.0748,-78.3137C137.6938,-78.4477 159.2094,-78.6027 177.082,-78.7314"/>
<polygon fill="#000000" fill-opacity="0.466667" stroke="#000000" stroke-width="2" stroke-opacity="0.466667" points="177.1098,-82.2315 187.1348,-78.8037 177.1603,-75.2317 177.1098,-82.2315"/>
</g>
<!-- src/UseCases/__test__/UserAPI.spec.ts -->
<g id="node27" class="node">
<title>src/UseCases/__test__/UserAPI.spec.ts</title>
<g id="a_node27"><a xlink:href="src/UseCases/__test__/UserAPI.spec.ts" xlink:title="UserAPI.spec.ts">
<path fill="#ddfeff" stroke="#000000" d="M109.8697,-115.5C109.8697,-115.5 41.1591,-115.5 41.1591,-115.5 38.3258,-115.5 35.4925,-112.6667 35.4925,-109.8333 35.4925,-109.8333 35.4925,-104.1667 35.4925,-104.1667 35.4925,-101.3333 38.3258,-98.5 41.1591,-98.5 41.1591,-98.5 109.8697,-98.5 109.8697,-98.5 112.703,-98.5 115.5363,-101.3333 115.5363,-104.1667 115.5363,-104.1667 115.5363,-109.8333 115.5363,-109.8333 115.5363,-112.6667 112.703,-115.5 109.8697,-115.5"/>
<text text-anchor="middle" x="75.5144" y="-104.3" font-family="Helvetica,sans-Serif" font-size="9.00" fill="#000000">UserAPI.spec.ts</text>
</a>
</g>
</g>
<!-- src/UseCases/__test__/UserAPI.spec.ts&#45;&gt;src/InMemoryDataModelProvider/ProviderFactory.ts -->
<g id="edge26" class="edge">
<title>src/UseCases/__test__/UserAPI.spec.ts&#45;&gt;src/InMemoryDataModelProvider/ProviderFactory.ts</title>
<path fill="none" stroke="#000000" stroke-width="2" stroke-opacity="0.466667" d="M77.975,-115.5842C84.0652,-135.1602 101.8077,-183.1712 135.0288,-206 142.4013,-211.0662 151.0417,-214.4751 159.8566,-216.7385"/>
<polygon fill="#000000" fill-opacity="0.466667" stroke="#000000" stroke-width="2" stroke-opacity="0.466667" points="159.3187,-220.2019 169.8249,-218.8345 160.7591,-213.3516 159.3187,-220.2019"/>
</g>
<!-- src/UseCases/__test__/UserAPI.spec.ts&#45;&gt;src/UseCases/AdminAPI.ts -->
<g id="edge27" class="edge">
<title>src/UseCases/__test__/UserAPI.spec.ts&#45;&gt;src/UseCases/AdminAPI.ts</title>
<path fill="none" stroke="#000000" stroke-width="2" stroke-opacity="0.466667" d="M115.7703,-110.7158C166.0906,-115.3605 251.8586,-123.2772 303.4081,-128.0354"/>
<polygon fill="#000000" fill-opacity="0.466667" stroke="#000000" stroke-width="2" stroke-opacity="0.466667" points="303.2729,-131.5377 313.5523,-128.9717 303.9164,-124.5673 303.2729,-131.5377"/>
</g>
<!-- src/UseCases/__test__/UserAPI.spec.ts&#45;&gt;src/UseCases/UserAPI.ts -->
<g id="edge28" class="edge">
<title>src/UseCases/__test__/UserAPI.spec.ts&#45;&gt;src/UseCases/UserAPI.ts</title>
<path fill="none" stroke="#000000" stroke-width="2" stroke-opacity="0.466667" d="M115.7703,-106.4055C167.1935,-105.646 255.6353,-104.3399 306.7476,-103.585"/>
<polygon fill="#000000" fill-opacity="0.466667" stroke="#000000" stroke-width="2" stroke-opacity="0.466667" points="306.8084,-107.0846 316.7556,-103.4372 306.705,-100.0854 306.8084,-107.0846"/>
</g>
<!-- src/UseCases/index.ts&#45;&gt;src/UseCases/APIConverter.ts -->
<g id="edge29" class="edge">
<title>src/UseCases/index.ts&#45;&gt;src/UseCases/APIConverter.ts</title>
<path fill="none" stroke="#000000" stroke-width="2" stroke-opacity="0.466667" d="M241.4022,-78.4183C278.8573,-78.0607 348.5564,-79.0211 406.9668,-89 411.1629,-89.7169 415.5128,-90.6799 419.8001,-91.7672"/>
<polygon fill="#000000" fill-opacity="0.466667" stroke="#000000" stroke-width="2" stroke-opacity="0.466667" points="419.0175,-95.182 429.5885,-94.4721 420.8821,-88.4349 419.0175,-95.182"/>
</g>
<!-- src/UseCases/index.ts&#45;&gt;src/UseCases/APIModel.ts -->
<g id="edge30" class="edge">
<title>src/UseCases/index.ts&#45;&gt;src/UseCases/APIModel.ts</title>
<path fill="none" stroke="#000000" stroke-width="2" stroke-opacity="0.466667" d="M241.4155,-74.9044C259.4782,-72.167 283.6093,-68.5099 304.1775,-65.3928"/>
<polygon fill="#000000" fill-opacity="0.466667" stroke="#000000" stroke-width="2" stroke-opacity="0.466667" points="304.8882,-68.8251 314.2509,-63.8662 303.8393,-61.9042 304.8882,-68.8251"/>
</g>
<!-- src/UseCases/index.ts&#45;&gt;src/UseCases/AdminAPI.ts -->
<g id="edge31" class="edge">
<title>src/UseCases/index.ts&#45;&gt;src/UseCases/AdminAPI.ts</title>
<path fill="none" stroke="#000000" stroke-width="2" stroke-opacity="0.466667" d="M229.5045,-87.5439C245.1852,-96.1394 270.6075,-109.3293 293.7534,-118 297.0391,-119.2309 300.4782,-120.3991 303.9571,-121.4971"/>
<polygon fill="#000000" fill-opacity="0.466667" stroke="#000000" stroke-width="2" stroke-opacity="0.466667" points="303.1903,-124.9201 313.7723,-124.3989 305.1749,-118.2073 303.1903,-124.9201"/>
</g>
<!-- src/UseCases/index.ts&#45;&gt;src/UseCases/UserAPI.ts -->
<g id="edge32" class="edge">
<title>src/UseCases/index.ts&#45;&gt;src/UseCases/UserAPI.ts</title>
<path fill="none" stroke="#000000" stroke-width="2" stroke-opacity="0.466667" d="M241.4155,-83.9147C260.2087,-87.3324 285.5712,-91.9449 306.6549,-95.7792"/>
<polygon fill="#000000" fill-opacity="0.466667" stroke="#000000" stroke-width="2" stroke-opacity="0.466667" points="306.149,-99.2445 316.6139,-97.5903 307.4015,-92.3575 306.149,-99.2445"/>
</g>
<!-- src/index.ts -->
<g id="node29" class="node">
<title>src/index.ts</title>
<g id="a_node29"><a xlink:href="src/index.ts" xlink:title="index.ts">
<path fill="#ddfeff" stroke="#000000" d="M96.8477,-33.5C96.8477,-33.5 54.1811,-33.5 54.1811,-33.5 51.3477,-33.5 48.5144,-30.6667 48.5144,-27.8333 48.5144,-27.8333 48.5144,-22.1667 48.5144,-22.1667 48.5144,-19.3333 51.3477,-16.5 54.1811,-16.5 54.1811,-16.5 96.8477,-16.5 96.8477,-16.5 99.6811,-16.5 102.5144,-19.3333 102.5144,-22.1667 102.5144,-22.1667 102.5144,-27.8333 102.5144,-27.8333 102.5144,-30.6667 99.6811,-33.5 96.8477,-33.5"/>
<text text-anchor="middle" x="75.5144" y="-22.3" font-family="Helvetica,sans-Serif" font-size="9.00" fill="#000000">index.ts</text>
</a>
</g>
</g>
<!-- src/index.ts&#45;&gt;src/UseCases/index.ts -->
<g id="edge33" class="edge">
<title>src/index.ts&#45;&gt;src/UseCases/index.ts</title>
<path fill="none" stroke="#000000" stroke-width="2" stroke-opacity="0.466667" d="M97.5198,-33.5565C120.5784,-42.5224 157.0041,-56.686 183.0598,-66.8173"/>
<polygon fill="#000000" fill-opacity="0.466667" stroke="#000000" stroke-width="2" stroke-opacity="0.466667" points="181.9,-70.1216 192.4886,-70.4836 184.4368,-63.5974 181.9,-70.1216"/>
</g>
</g>
</svg>
